<svg xmlns="http://www.w3.org/2000/svg" viewBox="0 0 400 300" data-imageid="credit-card-outline" imageName="Credit Card" class="illustrations_image" style="width: 166px;"><g id="_393_credit_card_outline" data-name="#393_credit_card_outline"><rect x="104.02" y="90.13" width="165.32" height="105.78" rx="10.35" transform="translate(-27.58 46.08) rotate(-13.11)" fill="#f56132"/><path d="M125.9,212.21a11.37,11.37,0,0,1-11.05-8.77l-19.3-82.87A11.36,11.36,0,0,1,104,106.94L244.88,74.13a11.36,11.36,0,0,1,13.63,8.48l19.3,82.87a11.33,11.33,0,0,1-8.47,13.62h0L128.48,211.92A11.4,11.4,0,0,1,125.9,212.21ZM247.46,75.83a9.09,9.09,0,0,0-2.12.25L104.48,108.89a9.34,9.34,0,0,0-7,11.22L116.8,203A9.36,9.36,0,0,0,128,210l140.85-32.81a9.35,9.35,0,0,0,7-11.22L256.56,83.06A9.36,9.36,0,0,0,247.46,75.83Zm21.65,102.3h0Z" fill="#093f68"/><rect x="100.39" y="116.93" width="165.32" height="21.03" transform="translate(-24.14 44.85) rotate(-13.11)" fill="#093f68"/><path d="M104.93,157.44a1,1,0,0,1-1-.78l-4.77-20.48a1,1,0,0,1,.12-.75,1,1,0,0,1,.62-.45l161-37.51a1,1,0,0,1,1.2.75l4.78,20.48a1,1,0,0,1-.13.76,1,1,0,0,1-.62.44l-161,37.51A.91.91,0,0,1,104.93,157.44Zm-3.57-20.74,4.32,18.53,159.06-37-4.32-18.53Z" fill="#093f68"/><rect x="138.43" y="119.38" width="165.32" height="105.78" rx="10.35" fill="#68e1fd" class="target-color"/><path d="M293.4,226.17H148.77a11.36,11.36,0,0,1-11.34-11.35V129.73a11.36,11.36,0,0,1,11.34-11.35H293.4a11.36,11.36,0,0,1,11.35,11.35v85.09A11.36,11.36,0,0,1,293.4,226.17ZM148.77,120.38a9.36,9.36,0,0,0-9.34,9.35v85.09a9.35,9.35,0,0,0,9.34,9.35H293.4a9.35,9.35,0,0,0,9.35-9.35V129.73a9.36,9.36,0,0,0-9.35-9.35Z" fill="#093f68"/><circle cx="253.3" cy="154.17" r="11.63" fill="#ffbc0e"/><path d="M253.3,166.8a12.63,12.63,0,1,1,12.62-12.63A12.65,12.65,0,0,1,253.3,166.8Zm0-23.25a10.63,10.63,0,1,0,10.62,10.62A10.64,10.64,0,0,0,253.3,143.55Z" fill="#093f68"/><circle cx="271.46" cy="154.17" r="11.63" fill="#f56132"/><path d="M271.46,166.8a12.63,12.63,0,1,1,12.62-12.63A12.65,12.65,0,0,1,271.46,166.8Zm0-23.25a10.63,10.63,0,1,0,10.62,10.62A10.64,10.64,0,0,0,271.46,143.55Z" fill="#093f68"/><path d="M173.38,166.74H162.27a7.05,7.05,0,0,1-7.05-7V148.59a7,7,0,0,1,7.05-7h11.11a7,7,0,0,1,7,7V159.7A7.05,7.05,0,0,1,173.38,166.74Zm-11.11-23.19a5,5,0,0,0-5.05,5V159.7a5,5,0,0,0,5.05,5h11.11a5,5,0,0,0,5-5V148.59a5,5,0,0,0-5-5Z" fill="#093f68"/><path d="M183.69,203H156.22a1,1,0,0,1-1-1V190.29a1,1,0,0,1,1-1h27.47a1,1,0,0,1,1,1V202A1,1,0,0,1,183.69,203Zm-26.47-2h25.47v-9.71H157.22Z" fill="#093f68"/><path d="M217.78,203H190.31a1,1,0,0,1-1-1V190.29a1,1,0,0,1,1-1h27.47a1,1,0,0,1,1,1V202A1,1,0,0,1,217.78,203Zm-26.47-2h25.47v-9.71H191.31Z" fill="#093f68"/><path d="M251.86,203H224.4a1,1,0,0,1-1-1V190.29a1,1,0,0,1,1-1h27.46a1,1,0,0,1,1,1V202A1,1,0,0,1,251.86,203Zm-26.46-2h25.46v-9.71H225.4Z" fill="#093f68"/><path d="M286,203H258.49a1,1,0,0,1-1-1V190.29a1,1,0,0,1,1-1H286a1,1,0,0,1,1,1V202A1,1,0,0,1,286,203Zm-26.46-2H285v-9.71H259.49Z" fill="#093f68"/></g></svg>