<svg id="Layer_1" data-name="Layer 1" xmlns="http://www.w3.org/2000/svg" viewBox="0 0 400 300" data-imageid="factory-worker-two-color" imageName="Factory Worker" class="illustrations_image" style="width: 166px;"><path d="M67.23,185.48S60.87,122.6,84.38,89.3c21.55-30.5,79.86-60.82,172.58-42s64.73,138.51,64.73,138.51Z" fill="#e6e6e6" opacity="0.4"/><path d="M201.71,84.74s-63.55.22-58.22,30.55,19,58.19,19,58.19l79-.5S304.32,83.86,201.71,84.74Z" fill="#68e1fd" class="target-color"/><path d="M171,87.9s7.64,24.52,9.53,44.44l-29,18.59,11,35.86h81.4s7.37-37,9.24-43.65L224.6,128.55,234.3,88l-5-1.38-9.09,40.45-34.63,2.06S181.69,99.29,175.08,87Z" fill="#24285b"/><path d="M173.69,105.42s8.86,18.87,0,35.87,58.47,4.33,58.47,4.33l-5,27.67-54.28.65-23.46-18.68-4.6-31Z" opacity="0.08"/><path d="M172.24,102.38a16,16,0,0,0-22-5.49c-14.76,8.79-37.69,26.88-31.47,51.9,9,36.23,74.78,11.08,74.78,11.08l-1.44-9.72s-46.09,8.06-39.84-8.94C157.45,127,182.19,119.54,172.24,102.38Z" fill="#68e1fd" class="target-color"/><path d="M172.24,102.38a16,16,0,0,0-22-5.49c-14.76,8.79-37.69,26.88-31.47,51.9,9,36.23,74.78,11.08,74.78,11.08l-1.44-9.72s-46.09,8.06-39.84-8.94C157.45,127,182.19,119.54,172.24,102.38Z" fill="#fff" opacity="0.46"/><path d="M222.39,112.15s7.11,33.31,20.37,36.93c8.82,2.41-10.47-38.25-5.73-48.38s14.78-3.43,19.66,4.64,23.09,58.95,2.44,64.81-37.53-12.78-41.64-31.72a89.11,89.11,0,0,1-1.92-25.57Z" fill="#68e1fd" class="target-color"/><path d="M222.39,112.15s7.11,33.31,20.37,36.93c8.82,2.41-10.47-38.25-5.73-48.38s14.78-3.43,19.66,4.64,23.09,58.95,2.44,64.81-37.53-12.78-41.64-31.72a89.11,89.11,0,0,1-1.92-25.57Z" fill="#fff" opacity="0.46"/><rect x="178.29" y="112.86" width="46.83" height="39.23" fill="#ffd200"/><polygon points="209.39 112.86 206.5 152.36 225.12 152.1 225.12 112.86 209.39 112.86" opacity="0.08"/><rect x="182.57" y="118.27" width="9.85" height="3.45" opacity="0.08"/><path d="M184.48,148.12c-1.25,1-1.71,2.61-2.1,4.14a15.13,15.13,0,0,0-.68,4.41,5.19,5.19,0,0,0,1.79,3.94c1.52,1.17,3.64,1,5.51.66a24.4,24.4,0,0,0,4.52-1.4c1.68-.7,3.4-1.72,4.06-3.42C200.57,148.69,190.1,143.77,184.48,148.12Z" fill="#f4a28c"/><path d="M197.35,86.48s-3.66,8,1.32,10,6-1.23,6-1.23,4,3.57,6.62,0,1.32-9.75-2.21-12.19S197.35,86.48,197.35,86.48Z" fill="#fff"/><path d="M198.45,86.58c0,1.39.75,2.67,1,4,.33,1.89,1.33,4.61,4.38,4.74,4.72.2,4.92-7.24,4.92-7.24s1.93-7.22-3.17-7.45C201,80.46,198.58,80.35,198.45,86.58Z" fill="#f4a28c"/><path d="M208.49,88.46s0-2.25,1.89-2.43S212.14,90.09,208.49,88.46Z" fill="#f4a28c"/><path d="M199.84,88.42s.38-2.21-1.51-2.67S196,89.5,199.84,88.42Z" fill="#f4a28c"/><path d="M211.51,85.84c0,.25-2.84.25-6.09.18h0l-2.67-.08h0c-3.22-.1-6.09-.23-6.09-.23a8.13,8.13,0,0,1,1.48-2.19c.66-.47-.28-4.81,2.59-7.26a4.61,4.61,0,0,1,2-1,4.67,4.67,0,0,1,0-.53.61.61,0,0,1,0-.12.84.84,0,0,1,.42-.41,2.8,2.8,0,0,1,1.81.08.84.84,0,0,1,.44.69,2.55,2.55,0,0,1,0,.39,7,7,0,0,1,3.41,2c1.23,1.53,1,6.52,1,6.52S211.41,85.27,211.51,85.84Z" fill="#ffd200"/><path d="M205.4,75V86l-2.67-.08V74.59a.84.84,0,0,1,.42-.41,2.8,2.8,0,0,1,1.81.08A.84.84,0,0,1,205.4,75Z" opacity="0.08"/><path d="M220.31,108.82a11.13,11.13,0,0,0-8.3.75,5.36,5.36,0,0,0-1.93,1.53,2.68,2.68,0,0,0-.5,2.34,3.24,3.24,0,0,0,1.92-.43,4.25,4.25,0,0,0-.1,3.76C215.39,124,229.05,111.5,220.31,108.82Z" fill="#f4a28c"/><rect x="61.01" y="192.66" width="277.98" height="65.85" fill="#c9c9c9"/><path d="M343.34,192.83V199a6.66,6.66,0,0,1-4.35,6.25,6.57,6.57,0,0,1-2.31.42H63.32a6.57,6.57,0,0,1-2.31-.42A6.66,6.66,0,0,1,56.66,199v-6.18a6.66,6.66,0,0,1,6.66-6.66H336.68c.23,0,.46,0,.68,0h0A6.66,6.66,0,0,1,343.34,192.83Z" fill="#e6e6e6"/><circle cx="69.92" cy="195.92" r="4.5" fill="#c9c9c9"/><circle cx="93.57" cy="195.92" r="4.5" fill="#c9c9c9"/><circle cx="117.22" cy="195.92" r="4.5" fill="#c9c9c9"/><circle cx="140.87" cy="195.92" r="4.5" fill="#c9c9c9"/><circle cx="164.52" cy="195.92" r="4.5" fill="#c9c9c9"/><circle cx="188.17" cy="195.92" r="4.5" fill="#c9c9c9"/><circle cx="211.83" cy="195.92" r="4.5" fill="#c9c9c9"/><circle cx="235.48" cy="195.92" r="4.5" fill="#c9c9c9"/><circle cx="259.13" cy="195.92" r="4.5" fill="#c9c9c9"/><circle cx="282.78" cy="195.92" r="4.5" fill="#c9c9c9"/><circle cx="306.43" cy="195.92" r="4.5" fill="#c9c9c9"/><circle cx="330.08" cy="195.92" r="4.5" fill="#c9c9c9"/><path d="M343.34,192.83V199a6.66,6.66,0,0,1-4.35,6.25v53.25H253.65c31.68-12.25,41.64-35.93,44.54-52.83a76.57,76.57,0,0,0,1.11-13,51.24,51.24,0,0,0-.35-6.38l38.41-.08h0A6.66,6.66,0,0,1,343.34,192.83Z" opacity="0.08"/><rect x="75.66" y="147.3" width="46.83" height="39.23" fill="#ffd200"/><polygon points="106.76 147.3 103.86 186.79 122.49 186.53 122.49 147.3 106.76 147.3" opacity="0.08"/><rect x="79.94" y="152.71" width="9.85" height="3.45" opacity="0.08"/><rect x="278.38" y="147.3" width="46.83" height="39.23" fill="#ffd200"/><polygon points="309.49 147.3 306.59 186.79 325.21 186.53 325.21 147.3 309.49 147.3" opacity="0.08"/><rect x="282.66" y="152.71" width="9.85" height="3.45" opacity="0.08"/></svg>