<svg xmlns="http://www.w3.org/2000/svg" viewBox="0 0 400 300" data-imageid="notifications-outline" imageName="Notifications" class="illustrations_image" style="width: 166px;"><g id="_323_notifications_outline" data-name="#323_notifications_outline"><path d="M246.1,74.87V225.13a9.69,9.69,0,0,1-9.69,9.7H159.3a9.7,9.7,0,0,1-9.7-9.7V74.87a9.7,9.7,0,0,1,9.7-9.7h77.11A9.69,9.69,0,0,1,246.1,74.87Z" fill="#fff"/><path d="M236.41,235.83H159.3a10.71,10.71,0,0,1-10.7-10.7V74.87a10.71,10.71,0,0,1,10.7-10.7h77.11a10.71,10.71,0,0,1,10.69,10.7V225.13A10.71,10.71,0,0,1,236.41,235.83ZM159.3,66.17a8.71,8.71,0,0,0-8.7,8.7V225.13a8.71,8.71,0,0,0,8.7,8.7h77.11a8.7,8.7,0,0,0,8.69-8.7V74.87a8.7,8.7,0,0,0-8.69-8.7Z" fill="#093f68"/><rect x="149.6" y="83.88" width="96.5" height="129.28" fill="#68e1fd" class="target-color"/><path d="M246.1,214.16H149.6a1,1,0,0,1-1-1V83.88a1,1,0,0,1,1-1h96.5a1,1,0,0,1,1,1V213.16A1,1,0,0,1,246.1,214.16Zm-95.5-2h94.5V84.88H150.6Z" fill="#093f68"/><circle cx="213.26" cy="75.49" r="1.56" fill="#093f68"/><path d="M205.81,76.49H180.87a1,1,0,0,1,0-2h24.94a1,1,0,0,1,0,2Z" fill="#093f68"/><circle cx="197.85" cy="223.4" r="5.67" fill="#093f68"/><path d="M244.67,99h-70a17.25,17.25,0,0,0-17.25,17.25v48.9a17.25,17.25,0,0,0,17.25,17.25h1.7L172,198.89a1.65,1.65,0,0,0,2.74,1.62l18.93-18.09h51a17.25,17.25,0,0,0,17.25-17.25v-48.9A17.26,17.26,0,0,0,244.67,99Z" fill="#fff"/><path d="M173.55,202a2.66,2.66,0,0,1-2.57-3.34l4.07-15.21h-.4a18.27,18.27,0,0,1-18.25-18.25v-48.9A18.27,18.27,0,0,1,174.65,98h70a18.27,18.27,0,0,1,18.25,18.25v48.9a18.27,18.27,0,0,1-18.25,18.25H194l-18.64,17.81A2.62,2.62,0,0,1,173.55,202ZM174.65,100a16.27,16.27,0,0,0-16.25,16.25v48.9a16.27,16.27,0,0,0,16.25,16.25h1.7a1,1,0,0,1,.8.39,1,1,0,0,1,.17.87l-4.4,16.46a.65.65,0,0,0,1.08.65l18.93-18.09a1,1,0,0,1,.69-.28h51a16.27,16.27,0,0,0,16.25-16.25v-48.9A16.27,16.27,0,0,0,244.67,100Z" fill="#093f68"/><path d="M209.66,120.86a5.9,5.9,0,1,1,5.9-5.9A5.91,5.91,0,0,1,209.66,120.86Zm0-9.8a3.9,3.9,0,1,0,3.9,3.9A3.91,3.91,0,0,0,209.66,111.06Z" fill="#093f68"/><circle cx="210.7" cy="160.98" r="7.36" fill="#ffbc0e"/><path d="M210.7,169.34a8.36,8.36,0,1,1,8.35-8.36A8.37,8.37,0,0,1,210.7,169.34Zm0-14.72a6.36,6.36,0,1,0,6.35,6.36A6.37,6.37,0,0,0,210.7,154.62Z" fill="#093f68"/><path d="M233,159.37l-5.5-9.11V134.05a17.87,17.87,0,0,0-17.87-17.88h0a17.88,17.88,0,0,0-17.88,17.88v16.21l-5.49,9.11a1.55,1.55,0,0,0,1.33,2.36h44.07A1.56,1.56,0,0,0,233,159.37Z" fill="#ffbc0e"/><path d="M231.69,162.73H187.62a2.5,2.5,0,0,1-2.22-1.3,2.54,2.54,0,0,1,0-2.58l5.35-8.87V134.05a18.88,18.88,0,1,1,37.75,0V150l5.35,8.87a2.56,2.56,0,0,1-2.19,3.88Zm-22-45.56a16.9,16.9,0,0,0-16.88,16.88v16.21a1,1,0,0,1-.14.51l-5.49,9.12a.52.52,0,0,0,0,.56.55.55,0,0,0,.48.28h44.07a.56.56,0,0,0,.49-.28.55.55,0,0,0,0-.56h0l-5.49-9.12a.92.92,0,0,1-.15-.51V134.05A16.89,16.89,0,0,0,209.66,117.17Z" fill="#093f68"/><circle cx="253.71" cy="174.8" r="12.3" fill="#f56132"/><path d="M253.71,188.1A13.3,13.3,0,1,1,267,174.8,13.32,13.32,0,0,1,253.71,188.1Zm0-24.59A11.3,11.3,0,1,0,265,174.8,11.31,11.31,0,0,0,253.71,163.51Z" fill="#093f68"/><path d="M239.93,122.45a1,1,0,0,1-.91-.57,1,1,0,0,1,.47-1.33l6.69-3.25a1,1,0,0,1,.88,1.8l-6.7,3.25A1,1,0,0,1,239.93,122.45Z" fill="#dfeaef"/><path d="M246.35,133.4l-.16,0-6.15-1a1,1,0,0,1,.31-2l6.15,1a1,1,0,0,1,.84,1.14A1,1,0,0,1,246.35,133.4Z" fill="#dfeaef"/><path d="M233.56,115.31a1,1,0,0,1-.55-.17,1,1,0,0,1-.28-1.38l3-4.51a1,1,0,0,1,1.39-.28,1,1,0,0,1,.28,1.38l-2.95,4.5A1,1,0,0,1,233.56,115.31Z" fill="#dfeaef"/><path d="M178.57,122.45a.94.94,0,0,1-.43-.1l-5.32-2.58-1.38-.67a1,1,0,1,1,.87-1.8l1.38.67,5.31,2.58a1,1,0,0,1-.43,1.9Z" fill="#dfeaef"/><path d="M172.14,133.4a1,1,0,0,1-.15-2l6.15-1a1,1,0,0,1,1.15.83,1,1,0,0,1-.84,1.14l-6.15,1Z" fill="#dfeaef"/><path d="M184.93,115.31a1,1,0,0,1-.83-.45l-3-4.51a1,1,0,0,1,1.67-1.1l3,4.51a1,1,0,0,1-.29,1.38A1,1,0,0,1,184.93,115.31Z" fill="#dfeaef"/></g></svg>