<svg xmlns="http://www.w3.org/2000/svg" viewBox="0 0 400 300" data-imageid="pr-outline" imageName="PR" class="illustrations_image" style="width: 166px;"><g id="_536_pr_outline" data-name="#536_pr_outline"><path d="M270.22,222.6H129.77a15.9,15.9,0,0,1-15.9-15.9V77.4H254.33V206.7A15.89,15.89,0,0,0,270.22,222.6Z" fill="#fff"/><path d="M270.22,223.6H129.77a16.92,16.92,0,0,1-16.9-16.9V77.4a1,1,0,0,1,1-1H254.33a1,1,0,0,1,1,1V206.7a14.91,14.91,0,0,0,14.89,14.9,1,1,0,0,1,0,2ZM114.87,78.4V206.7a14.92,14.92,0,0,0,14.9,14.9H262.26a16.91,16.91,0,0,1-8.93-14.9V78.4Z" fill="#093f68"/><path d="M141.81,137.71h5a0,0,0,0,1,0,0v20.15a2.5,2.5,0,0,1-2.5,2.5h0a2.5,2.5,0,0,1-2.5-2.5V137.71A0,0,0,0,1,141.81,137.71Z" transform="translate(-29.88 36.36) rotate(-13.03)" fill="#093f68"/><path d="M146.3,161.13a3.51,3.51,0,0,1-3.41-2.71l-4.54-19.63a1,1,0,0,1,.75-1.2l4.86-1.13a1,1,0,0,1,.76.13,1,1,0,0,1,.44.62l4.54,19.63a3.5,3.5,0,0,1-2.61,4.2h0A3.46,3.46,0,0,1,146.3,161.13Zm.56-1.07h0Zm-6.34-20.75L144.84,158a1.49,1.49,0,0,0,1.79,1.12h0a1.51,1.51,0,0,0,1.13-1.8l-4.32-18.65Z" fill="#093f68"/><circle cx="178.49" cy="128.07" r="7.16" fill="#68e1fd" class="target-color"/><path d="M178.47,136.24a8.16,8.16,0,1,1,8.12-9.1h0a8.17,8.17,0,0,1-7.17,9A7.69,7.69,0,0,1,178.47,136.24Zm0-14.32a5.74,5.74,0,0,0-.71,0,6.16,6.16,0,1,0,.71,0Z" fill="#093f68"/><path d="M176.88,107.5l4.7,41s-14.55-6.69-22.66-5.76l-17.66,2a12.32,12.32,0,1,1-2.81-24.48l17.66-2C164.22,117.31,176.88,107.5,176.88,107.5Z" fill="#68e1fd" class="target-color"/><path d="M181.58,149.48a1.06,1.06,0,0,1-.42-.09c-.14-.06-14.39-6.56-22.13-5.68l-17.66,2a13.32,13.32,0,1,1-3-26.47l17.66-2c7.73-.89,20.14-10.44,20.27-10.53a1,1,0,0,1,1-.14,1,1,0,0,1,.6.81l4.71,41a1,1,0,0,1-.41.92A1,1,0,0,1,181.58,149.48Zm-21-7.85c6.74,0,16.09,3.66,19.82,5.24l-4.31-37.53c-3.57,2.6-13.1,9.11-19.86,9.89l-17.66,2a11.32,11.32,0,1,0,2.59,22.49l17.66-2A16.58,16.58,0,0,1,160.57,141.63Z" fill="#093f68"/><path d="M146,119.4l2.81,24.48-7.54.87a12.32,12.32,0,0,1-2.81-24.48Z" fill="#68e1fd" class="target-color"/><path d="M139.83,145.83A13.32,13.32,0,0,1,126.62,134a13.34,13.34,0,0,1,11.72-14.76l7.53-.86a1,1,0,0,1,1.11.88l2.81,24.48a1,1,0,0,1-.88,1.11l-7.53.86A13.56,13.56,0,0,1,139.83,145.83Zm5.28-25.32-6.55.75a11.33,11.33,0,0,0-9.95,12.54,11.34,11.34,0,0,0,12.54,10l6.54-.76Z" fill="#093f68"/><path d="M135.17,128.42a1,1,0,0,1-1-.89,1,1,0,0,1,.88-1.1l6-.67a1,1,0,0,1,1.1.88,1,1,0,0,1-.88,1.1l-6,.68Z" fill="#093f68"/><path d="M135.49,132.58a1,1,0,0,1-.11-2l6-.67a1,1,0,0,1,1.11.88,1,1,0,0,1-.89,1.11l-6,.67Z" fill="#093f68"/><path d="M184,115.21a1,1,0,0,1-.89-.54,1,1,0,0,1,.42-1.34l5.36-2.79a1,1,0,0,1,.92,1.78l-5.35,2.78A1,1,0,0,1,184,115.21Z" fill="#dfeaef"/><path d="M189.33,127a1,1,0,0,1-.12-2l7.3-.88a1,1,0,0,1,1.11.87,1,1,0,0,1-.87,1.12l-7.3.88Z" fill="#dfeaef"/><path d="M194,142.9a1,1,0,0,1-.4-.08L187.18,140a1,1,0,0,1,.8-1.83l6.47,2.86a1,1,0,0,1-.41,1.91Z" fill="#dfeaef"/><path d="M159.77,82.27h2.76L168.21,91h0V82.27h2.08V94h-2.65l-5.79-9h0v9h-2.08Z" fill="#093f68"/><path d="M173,82.27h7.77v1.89H175V87h5.38v1.89H175v3.18h6V94H173Z" fill="#093f68"/><path d="M181.76,82.27h2.29l2.2,8.45h0l2.64-8.45H191l2.59,8.45h0l2.3-8.45H198L194.6,94h-2l-2.71-8.92h0L187.15,94h-1.93Z" fill="#093f68"/><path d="M205.07,84.79a1.89,1.89,0,0,0-.89-.71,3.07,3.07,0,0,0-1.16-.22,2.76,2.76,0,0,0-.71.08,1.78,1.78,0,0,0-.61.27,1.33,1.33,0,0,0-.44.47,1.34,1.34,0,0,0-.17.68,1.08,1.08,0,0,0,.42.92,3.91,3.91,0,0,0,1,.54q.61.24,1.35.45a5.23,5.23,0,0,1,1.34.6,3.31,3.31,0,0,1,1,1,3,3,0,0,1,.41,1.67,3.71,3.71,0,0,1-.35,1.65,3.35,3.35,0,0,1-.93,1.17,4.21,4.21,0,0,1-1.37.69,5.56,5.56,0,0,1-1.64.23,6.18,6.18,0,0,1-2.1-.36,3.92,3.92,0,0,1-1.74-1.23l1.57-1.52a2.55,2.55,0,0,0,1,.9,2.8,2.8,0,0,0,1.32.32,3.1,3.1,0,0,0,.73-.09,2.47,2.47,0,0,0,.66-.3,1.56,1.56,0,0,0,.48-.51,1.35,1.35,0,0,0,.18-.7,1.27,1.27,0,0,0-.41-1,3.75,3.75,0,0,0-1-.58c-.41-.16-.85-.32-1.34-.46a5.4,5.4,0,0,1-1.34-.59,3.35,3.35,0,0,1-1-1,3,3,0,0,1-.41-1.67,3.14,3.14,0,0,1,.37-1.57,3.34,3.34,0,0,1,1-1.1,4.41,4.41,0,0,1,1.38-.66,6.09,6.09,0,0,1,1.59-.21,5.74,5.74,0,0,1,1.8.28,4.16,4.16,0,0,1,1.56.93Z" fill="#093f68"/><path d="M254.33,156.71h31.79a0,0,0,0,1,0,0v50a15.9,15.9,0,0,1-15.9,15.9h0a15.9,15.9,0,0,1-15.9-15.9v-50a0,0,0,0,1,0,0Z" fill="#68e1fd" class="target-color"/><path d="M270.23,223.6a16.92,16.92,0,0,1-16.9-16.9v-50a1,1,0,0,1,1-1h31.8a1,1,0,0,1,1,1v50A16.92,16.92,0,0,1,270.23,223.6Zm-14.9-65.89v49a14.9,14.9,0,1,0,29.8,0v-49Z" fill="#093f68"/><path d="M240.79,111.25H207.22a1,1,0,0,1,0-2h33.57a1,1,0,0,1,0,2Z" fill="#093f68"/><path d="M240.79,126.28H207.22a1,1,0,0,1,0-2h33.57a1,1,0,0,1,0,2Z" fill="#093f68"/><path d="M240.79,141.31H207.22a1,1,0,1,1,0-2h33.57a1,1,0,1,1,0,2Z" fill="#093f68"/><path d="M240.79,156.34H207.22a1,1,0,0,1,0-2h33.57a1,1,0,0,1,0,2Z" fill="#093f68"/><path d="M240.79,172.84H187.43a1,1,0,0,1,0-2h53.36a1,1,0,0,1,0,2Z" fill="#093f68"/><path d="M171.44,172.84H127.33a1,1,0,0,1,0-2h44.11a1,1,0,0,1,0,2Z" fill="#093f68"/><path d="M240.79,187.09H127.53a1,1,0,0,1,0-2H240.79a1,1,0,0,1,0,2Z" fill="#093f68"/><path d="M224.45,201.35H127.53a1,1,0,0,1,0-2h96.92a1,1,0,0,1,0,2Z" fill="#093f68"/><path d="M274.86,175.73H255a1,1,0,0,1,0-2h19.89a1,1,0,0,1,0,2Z" fill="#093f68"/><path d="M274.86,188.12H255a1,1,0,0,1,0-2h19.89a1,1,0,0,1,0,2Z" fill="#093f68"/><path d="M274.86,200.51H255a1,1,0,0,1,0-2h19.89a1,1,0,0,1,0,2Z" fill="#093f68"/><path d="M240.79,100.84H125.64a1,1,0,0,1,0-2H240.79a1,1,0,0,1,0,2Z" fill="#dfeaef"/></g></svg>