<svg id="Layer_1" data-name="Layer 1" xmlns="http://www.w3.org/2000/svg" xmlns:xlink="http://www.w3.org/1999/xlink" viewBox="0 0 398.99 392.59" data-imageid="voting-monochromatic" imageName="Voting" class="illustrations_image" style="width: 166px;"><defs><linearGradient id="linear-gradient" x1="262.54" y1="164.25" x2="-39.95" y2="538.13" gradientUnits="userSpaceOnUse"><stop offset="0.01"/><stop offset="0.13" stop-opacity="0.69"/><stop offset="1" stop-opacity="0"/></linearGradient><linearGradient id="linear-gradient-2" x1="304.05" y1="189.07" x2="49.4" y2="503.83" xlink:href="#linear-gradient"/><linearGradient id="linear-gradient-3" x1="187.73" y1="87.06" x2="226.24" y2="147.81" xlink:href="#linear-gradient"/><linearGradient id="linear-gradient-4" x1="235.09" y1="105.05" x2="246.36" y2="142.62" xlink:href="#linear-gradient"/><linearGradient id="linear-gradient-5" x1="192.58" y1="121.14" x2="215.12" y2="297.27" xlink:href="#linear-gradient"/><linearGradient id="linear-gradient-6" x1="351.64" y1="150.51" x2="312.89" y2="37.78" xlink:href="#linear-gradient"/></defs><title>Voting</title><path d="M411.71,167.26c-5.79,45.42-29.59,86.41-55.15,124.39-30.21,44.9-68.08,90.59-121,101.94-19.27,4.14-39.23,3.33-58.87,1.66-21-1.78-42.34-4.63-61.5-13.47-30.1-13.87-51-40.62-68.72-67.68S4.82,258.78,17.32,223.79c4.94-13.81,15.9-24.4,25.22-35.72,28-34,42.34-77,65.42-114.45S168.76,1.81,212.72,4.14c21.57,1.14,41.56,11,62.26,17.15,17.13,5.09,35.16,7.78,52.42,12.31,12.14,3.19,23.9,7.27,34.67,13.76a91.14,91.14,0,0,1,19.48,15.75C406.56,89.66,416.42,130.28,411.71,167.26Z" transform="translate(-13.86 -4.03)" fill="#68e1fd" opacity="0.18" style="isolation:isolate" class="target-color"/><polygon points="62.39 315.97 62.39 187.74 336.45 168.57 336.45 296.79 193.22 363.34 62.39 315.97" fill="#68e1fd" class="target-color"/><polygon points="336.45 168.57 336.45 296.79 193.22 363.33 192.96 363.24 62.38 315.97 62.38 187.74 192.96 178.61 336.45 168.57" fill="url(#linear-gradient)"/><polygon points="336.45 168.57 336.45 296.79 193.22 363.33 192.96 363.24 192.96 178.61 336.45 168.57" fill="url(#linear-gradient-2)"/><polygon points="62.39 187.74 205.17 125.44 336.45 168.57 193.22 235.11 62.39 187.74" fill="#68e1fd" class="target-color"/><path d="M381.55,63.11l-.16.12C370,71.05,357.32,76.85,344.85,82.84c-22.47,10.77-43.08,21.66-64.8,33.84l-.11.07c-1.9,6-7.52,9.93-13.2,12.51s-11.84,4.32-16.91,8a26.58,26.58,0,0,0-7.81,8.86,15,15,0,0,1-2.27,3.57,11.56,11.56,0,0,1-4.34,2.3c-8,2.88-16.75,5.78-25,3.44a40.68,40.68,0,0,1-10-5,12.7,12.7,0,0,1-4.35-3.77,10.9,10.9,0,0,1-1.31-4.52c-1.53-13.57,5.06-27.05,14.49-36.93s21.48-16.78,33.34-23.54c5.91-3.37,13.21-4.65,19.86-6.1C288,70,308.37,51.47,327.4,33.6c12,3.15,23.67,7.19,34.35,13.57l.32.19A91.14,91.14,0,0,1,381.55,63.11Z" transform="translate(-13.86 -4.03)" fill="#f3bd8f"/><path d="M230.55,114.36c-6-.56-11.73,2.13-17,5.08-4,2.28-8,4.8-11.17,8.25s-5.3,7.95-5.11,12.6a6.77,6.77,0,0,0,1.52,4.4c2.28,2.46,6.58,1.49,8.95-.87s3.5-5.67,5.16-8.58a25.19,25.19,0,0,1,7.8-8.4c2.65-1.79,3.11-1.68,4.78-4.18C225.84,122.19,230.74,114.38,230.55,114.36Z" transform="translate(-13.86 -4.03)" fill="url(#linear-gradient-3)"/><path d="M241,120.39c5.79-1.41,11.51-3.39,17.47-3.57,1.73-.06,3.74.19,4.67,1.66a4.09,4.09,0,0,1,.55,2c.2,5.13-4.43,9-8.52,12.08a233,233,0,0,0-19.41,16.51,54.59,54.59,0,0,1-15-17.51c-.91-1.69-3.86-5.26-3.89-7.12,0-2.53,4-1.45,6-1.53A92.52,92.52,0,0,0,241,120.39Z" transform="translate(-13.86 -4.03)" fill="url(#linear-gradient-4)"/><polygon points="164.94 185.09 221.61 160.19 233.82 163.48 177.93 188.38 164.94 185.09" fill="url(#linear-gradient-5)"/><polygon points="176.05 184.62 187.79 116.51 231.95 120.27 227.25 163.48 176.05 184.62" fill="#fff"/><path d="M223.25,130.84a6.67,6.67,0,0,0,2.35,5.61c2.41,1.82,6,1.11,8.46-.6s4.3-4.22,6.49-6.32c7.37-7.06,18.86-9.08,25.16-17.12a3.08,3.08,0,0,0,.85-2c-.08-1-1-1.71-1.91-2.21-7.79-4.4-19.58-4.33-27.51,0C230.61,111.81,223.51,123.68,223.25,130.84Z" transform="translate(-13.86 -4.03)" fill="#f3bd8f"/><path d="M381.55,63.11l-.16.12C370,71.05,357.32,76.85,344.85,82.84c-22.47,10.77-43.08,21.66-64.8,33.84-.74-5.22,3.29-10.15,7.17-14a234.88,234.88,0,0,1,45.64-34.94c8-4.67,16.36-8.91,23.4-15,2-1.7,3.47-4.11,5.49-5.65l.32.19A91.14,91.14,0,0,1,381.55,63.11Z" transform="translate(-13.86 -4.03)" fill="url(#linear-gradient-6)"/></svg>